<?xml version="1.0" encoding="utf-8"?>
<!-- Generator: Adobe Illustrator 22.1.0, SVG Export Plug-In . SVG Version: 6.00 Build 0)  -->
<svg version="1.1" id="Layer_1" xmlns="http://www.w3.org/2000/svg" xmlns:xlink="http://www.w3.org/1999/xlink" x="0px" y="0px"
	 viewBox="0 0 687 328.5" style="enable-background:new 0 0 687 328.5;" xml:space="preserve">
<style type="text/css">
	.st0{fill:#FFFFFF;}
</style>
<g>
	<g>
		<g>
			<path class="st0" d="M94.8,277.3c-2.9,3.9-6.4,6.4-10.4,7.7l10.8,27.6l-29,5.1l-10.8-27.3l-26.1,4.6c-4.9,0.9-9-0.1-12.3-2.8
				c-3.5-2.9-5.2-6.7-5.2-11.4v-140c0-4.7,1.7-9.2,5.2-13.2c3.3-4.1,7.4-6.5,12.3-7.4l52.1-9.2c4.9-0.9,9,0.2,12.3,3.1
				c3.3,2.8,5,6.6,5,11.4v140C98.8,269.6,97.5,273.6,94.8,277.3z M70,141.9L40.7,147v116.8l29.3-5.2V141.9z"/>
			<path class="st0" d="M197,261.2c-3.1,3.2-6.4,5.1-10,5.7l-58,10.2c-4,0.7-7.4-0.1-10.2-2.4c-2.9-2.4-4.4-5.6-4.4-9.7V105
				l28.8-5.1v145.7l29.3-5.2V94.8l28.8-5.1v160.9C201.3,254.5,199.9,258,197,261.2z"/>
			<path class="st0" d="M299.9,243.3c-3.1,3.3-6.5,5.3-10.2,6l-58.1,10.2c-4,0.7-7.5-0.1-10.2-2.4c-2.9-2.4-4.4-5.6-4.4-9.7V101.9
				c0-3.9,1.5-7.6,4.4-11c2.8-3.3,6.2-5.3,10.2-6l58-10.2c3.7-0.7,7.2,0.1,10.2,2.4c2.8,2.6,4.2,5.7,4.2,9.4v43.8l-28.8,5.1v-29
				l-29.3,5.2v45.4l26.1-4.6v25.5l-26.1,4.6v45.4l29-5.1v-29l29.3-5.2v43.6C304.1,236,302.7,239.7,299.9,243.3z"/>
			<path class="st0" d="M402.5,225.2c-3.1,3.3-6.5,5.3-10.2,6l-58.1,10.2c-4,0.7-7.5-0.1-10.2-2.4c-2.9-2.4-4.4-5.6-4.4-9.7V83.9
				c0-3.9,1.5-7.6,4.4-11c2.8-3.3,6.2-5.3,10.2-6l58-10.2c3.7-0.7,7.2,0.1,10.2,2.4c2.8,2.6,4.2,5.7,4.2,9.4v43.8l-28.8,5.1v-29
				l-29.3,5.2v45.4l26.1-4.6v25.5l-26.1,4.6v45.4l29-5.1v-29l29.3-5.2v43.6C406.6,217.9,405.2,221.7,402.5,225.2z"/>
			<path class="st0" d="M479.5,215.8l-28.6-82.3v87.4l-28.8,5.1V66c0-4,1.5-7.7,4.4-11c2.6-3.4,6-5.4,10.2-6.2l14.3-2.5l29.7,98
				V41.1l14-2.5c3.9-0.7,7.3,0.2,10.2,2.6c2.8,2.3,4.2,5.5,4.2,9.5v159.9L479.5,215.8z"/>
			<path class="st0" d="M619.5,190.7l-29.1,5.1l-29-169.6l29-5.1L605,134.9l14.4-118.9l29-5.1L619.5,190.7z"/>
		</g>
	</g>
	<g>
		<path class="st0" d="M671.6,12.1c1.5,0.9,2.5,2.5,2.9,4.8c0.4,2.3,0.6,6.5,0.6,12.4c0,6-0.2,10.1-0.6,12.5
			c-0.4,2.3-1.3,3.9-2.8,4.8s-4.1,1.3-7.9,1.3c-3.7,0-6.4-0.4-7.9-1.3c-1.5-0.8-2.4-2.4-2.8-4.8c-0.4-2.3-0.6-6.5-0.6-12.5
			c0-5.9,0.2-10.1,0.6-12.4c0.4-2.3,1.4-3.9,2.9-4.8c1.5-0.9,4.1-1.3,7.8-1.3C667.5,10.8,670.1,11.3,671.6,12.1z M670.3,45
			c1.2-0.6,1.9-2,2.3-4.1c0.3-2.1,0.5-5.9,0.5-11.6c0-5.6-0.2-9.5-0.5-11.6s-1.1-3.4-2.3-4.1c-1.2-0.6-3.4-0.9-6.5-0.9
			c-3.2,0-5.4,0.3-6.5,0.9c-1.2,0.6-1.9,2-2.3,4.1c-0.3,2.1-0.5,5.9-0.5,11.6c0,5.7,0.2,9.5,0.5,11.6c0.3,2.1,1.1,3.4,2.3,4
			c1.2,0.6,3.4,0.9,6.5,0.9C667,45.9,669.2,45.6,670.3,45z M668.8,29c-0.3,0.9-0.9,1.6-1.8,2l2.6,8.1H667l-2.4-7.7h-0.2h-3.2v7.7
			h-2.5V19.6h5.9c1.4,0,2.4,0.2,3.1,0.7c0.7,0.5,1.1,1.1,1.3,2c0.2,0.8,0.3,1.9,0.3,3.2C669.3,26.9,669.1,28.1,668.8,29z
			 M665.8,28.8c0.4-0.3,0.6-0.6,0.7-1.1s0.2-1.2,0.2-2.2c0-1.4-0.2-2.3-0.5-2.8c-0.3-0.5-1-0.8-2.2-0.8h-2.8v7.3h2.7
			C664.8,29.2,665.4,29.1,665.8,28.8z"/>
	</g>
</g>
</svg>
