<?xml version="1.0" encoding="utf-8"?>
<!-- Generator: Adobe Illustrator 22.1.0, SVG Export Plug-In . SVG Version: 6.00 Build 0)  -->
<svg version="1.1" xmlns="http://www.w3.org/2000/svg" xmlns:xlink="http://www.w3.org/1999/xlink" x="0px" y="0px"
	 viewBox="0 0 414.4 196" style="enable-background:new 0 0 414.4 196;" xml:space="preserve">
<style type="text/css">
	.st0{fill:url(#SVGID_1_);}
	.st1{fill:#38D430;}
	.st2{fill:#0097CE;}
	.st3{fill:#FF40B4;}
</style>
<g id="photo">
</g>
<g id="art_1">
</g>
<g id="text">
</g>
<g id="art_2">
</g>
<g id="header">
	<linearGradient id="SVGID_1_" gradientUnits="userSpaceOnUse" x1="6.2182" y1="98" x2="408.2182" y2="98">
		<stop  offset="0" style="stop-color:#FF40B4"/>
		<stop  offset="0.5" style="stop-color:#0097CE"/>
		<stop  offset="1" style="stop-color:#38D430"/>
	</linearGradient>
	<path class="st0" d="M406.1,6.5c0.9,0.5,1.5,1.5,1.7,2.9c0.2,1.4,0.4,3.9,0.4,7.5c0,3.6-0.1,6.1-0.4,7.5c-0.2,1.4-0.8,2.4-1.7,2.9
		c-0.9,0.5-2.5,0.8-4.7,0.8c-2.3,0-3.8-0.3-4.7-0.8c-0.9-0.5-1.5-1.5-1.7-2.9c-0.2-1.4-0.4-3.9-0.4-7.5c0-3.6,0.1-6,0.4-7.5
		c0.2-1.4,0.8-2.4,1.7-2.9s2.5-0.8,4.7-0.8C403.7,5.7,405.2,6,406.1,6.5z M405.4,26.3c0.7-0.4,1.2-1.2,1.4-2.4
		c0.2-1.3,0.3-3.6,0.3-7c0-3.4-0.1-5.7-0.3-7c-0.2-1.3-0.7-2.1-1.4-2.4c-0.7-0.4-2-0.6-3.9-0.6c-1.9,0-3.2,0.2-3.9,0.6
		c-0.7,0.4-1.2,1.2-1.4,2.4c-0.2,1.3-0.3,3.6-0.3,7c0,3.4,0.1,5.7,0.3,7c0.2,1.2,0.7,2.1,1.4,2.4c0.7,0.4,2,0.6,3.9,0.6
		C403.3,26.8,404.7,26.6,405.4,26.3z M404.4,16.7c-0.2,0.6-0.5,1-1.1,1.2l1.5,4.9h-1.6l-1.4-4.6h-0.1h-1.9v4.6h-1.5V11h3.6
		c0.8,0,1.4,0.1,1.8,0.4c0.4,0.3,0.7,0.7,0.8,1.2c0.1,0.5,0.2,1.1,0.2,1.9C404.7,15.4,404.6,16.1,404.4,16.7z M402.6,16.5
		c0.2-0.2,0.4-0.4,0.4-0.7s0.1-0.7,0.1-1.3c0-0.8-0.1-1.4-0.3-1.7c-0.2-0.3-0.6-0.5-1.3-0.5h-1.7v4.4h1.6
		C402,16.8,402.4,16.7,402.6,16.5z M56.1,166c1.6-2.2,2.4-4.6,2.4-7.2V74.6c0-2.9-1-5.2-3-6.9c-2-1.7-4.5-2.4-7.4-1.8l-31.4,5.5
		c-2.9,0.5-5.4,2-7.4,4.4c-2.1,2.5-3.1,5.1-3.1,8V168c0,2.9,1,5.1,3.1,6.9c2,1.7,4.5,2.2,7.4,1.7l15.7-2.8l6.5,16.5l17.4-3.1
		l-6.5-16.6C52.3,169.9,54.4,168.4,56.1,166z M41.2,154.8l-17.6,3.1V87.6l17.6-3.1V154.8z M120.2,150V53.1l-17.4,3.1v87.6l-17.6,3.1
		V59.3l-17.4,3.1v96.3c0,2.4,0.9,4.4,2.6,5.8c1.7,1.4,3.7,1.9,6.1,1.4l34.9-6.1c2.2-0.4,4.2-1.5,6-3.4
		C119.3,154.4,120.2,152.3,120.2,150z M182.1,138.9v-26.2l-17.6,3.1v17.5l-17.5,3.1V109l15.7-2.8V90.8L147,93.6V66.3l17.6-3.1v17.5
		l17.4-3.1V51.2c0-2.2-0.8-4.1-2.5-5.7c-1.8-1.3-3.9-1.8-6.1-1.4l-34.9,6.1c-2.4,0.4-4.5,1.6-6.1,3.6c-1.8,2.1-2.6,4.3-2.6,6.6v87.5
		c0,2.4,0.9,4.4,2.6,5.8c1.7,1.4,3.7,1.9,6.2,1.4l35-6.2c2.3-0.4,4.3-1.6,6.2-3.6C181.2,143.4,182.1,141.2,182.1,138.9z M243.8,128
		v-26.2l-17.6,3.1v17.5l-17.5,3.1V98.1l15.7-2.8V80l-15.7,2.8V55.4l17.6-3.1v17.5l17.4-3.1V40.4c0-2.2-0.8-4.1-2.5-5.7
		c-1.8-1.3-3.9-1.8-6.1-1.4l-34.9,6.1c-2.4,0.4-4.5,1.6-6.1,3.6c-1.8,2.1-2.6,4.3-2.6,6.6v87.5c0,2.4,0.9,4.4,2.6,5.8
		c1.7,1.4,3.7,1.9,6.2,1.4l35-6.2c2.3-0.4,4.3-1.6,6.2-3.6C242.9,132.5,243.8,130.3,243.8,128z M305.3,125.9V29.7
		c0-2.4-0.8-4.3-2.5-5.7c-1.8-1.4-3.8-2-6.2-1.6l-8.4,1.5V86l-17.9-59l-8.6,1.5c-2.5,0.4-4.5,1.7-6.1,3.7c-1.7,2-2.6,4.2-2.6,6.6
		v96.2l17.4-3.1V79.5l17.2,49.5L305.3,125.9z M389.3,5.7l-17.5,3.1l-8.7,71.6l-8.8-68.5l-17.5,3.1l17.5,102l17.5-3.1L389.3,5.7z"/>
	<g>
		<g>
			<path class="st1" d="M540.4-753c0.8,0.5,1.3,1.3,1.6,2.6c0.2,1.3,0.3,3.6,0.3,6.8c0,3.3-0.1,5.5-0.3,6.8
				c-0.2,1.3-0.7,2.2-1.6,2.6c-0.8,0.5-2.3,0.7-4.3,0.7c-2.1,0-3.5-0.2-4.3-0.7c-0.8-0.5-1.3-1.3-1.6-2.6c-0.2-1.3-0.3-3.6-0.3-6.8
				c0-3.2,0.1-5.5,0.3-6.8c0.2-1.3,0.7-2.2,1.6-2.6c0.8-0.5,2.3-0.7,4.3-0.7C538.1-753.7,539.5-753.4,540.4-753z M539.7-734.9
				c0.6-0.3,1.1-1.1,1.2-2.2c0.2-1.1,0.3-3.3,0.3-6.4c0-3.1-0.1-5.2-0.3-6.4c-0.2-1.1-0.6-1.9-1.3-2.2c-0.7-0.3-1.8-0.5-3.6-0.5
				c-1.8,0-2.9,0.2-3.6,0.5c-0.6,0.3-1.1,1.1-1.2,2.2c-0.2,1.1-0.3,3.3-0.3,6.4c0,3.1,0.1,5.2,0.3,6.4c0.2,1.1,0.6,1.9,1.2,2.2
				c0.6,0.3,1.8,0.5,3.6,0.5C537.8-734.4,539-734.6,539.7-734.9z M538.8-743.7c-0.2,0.5-0.5,0.9-1,1.1l1.4,4.5h-1.4l-1.3-4.2h-0.1
				h-1.8v4.2h-1.4v-10.7h3.3c0.8,0,1.3,0.1,1.7,0.4c0.4,0.3,0.6,0.6,0.7,1.1c0.1,0.5,0.2,1,0.2,1.7
				C539.1-744.8,539-744.2,538.8-743.7z M537.2-743.8c0.2-0.1,0.3-0.4,0.4-0.6c0.1-0.3,0.1-0.7,0.1-1.2c0-0.7-0.1-1.3-0.3-1.5
				c-0.2-0.3-0.6-0.4-1.2-0.4h-1.6v4h1.5C536.6-743.6,537-743.6,537.2-743.8z"/>
		</g>
		<g>
			<path class="st2" d="M221.1-607.4c1.4-2,2.2-4.2,2.2-6.6v-76.8c0-2.7-0.9-4.8-2.7-6.3c-1.8-1.6-4.1-2.2-6.8-1.7l-28.6,5
				c-2.7,0.5-4.9,1.8-6.8,4c-1.9,2.2-2.9,4.7-2.9,7.3v76.8c0,2.6,0.9,4.7,2.9,6.3c1.8,1.5,4.1,2,6.8,1.6l14.3-2.5l6,15l15.9-2.8
				l-5.9-15.1C217.6-603.9,219.5-605.3,221.1-607.4z M207.5-617.6l-16.1,2.8v-64.1l16.1-2.8V-617.6z"/>
		</g>
		<g>
			<path class="st3" d="M277.2-616.3c-1.7,1.7-3.5,2.8-5.5,3.1l-31.8,5.6c-2.2,0.4-4.1,0-5.6-1.3c-1.6-1.3-2.4-3.1-2.4-5.3V-702
				l15.8-2.8v79.9l16.1-2.8v-79.9l15.8-2.8v88.3C279.6-620,278.8-618,277.2-616.3z"/>
		</g>
		<g>
			<path class="st1" d="M333.7-626.1c-1.7,1.8-3.6,2.9-5.6,3.3l-31.9,5.6c-2.2,0.4-4.1,0-5.6-1.3c-1.6-1.3-2.4-3.1-2.4-5.3v-79.8
				c0-2.1,0.8-4.1,2.4-6c1.5-1.8,3.4-2.9,5.6-3.3l31.8-5.6c2.1-0.4,3.9,0.1,5.6,1.3c1.5,1.4,2.3,3.1,2.3,5.2v24l-15.8,2.8v-15.9
				l-16.1,2.8v24.9l14.3-2.5v14l-14.3,2.5v24.9l15.9-2.8v-15.9l16.1-2.8v23.9C336-630.1,335.2-628.1,333.7-626.1z"/>
		</g>
		<g>
			<path class="st2" d="M390-636c-1.7,1.8-3.6,2.9-5.6,3.3l-31.9,5.6c-2.2,0.4-4.1,0-5.6-1.3c-1.6-1.3-2.4-3.1-2.4-5.3v-79.8
				c0-2.1,0.8-4.1,2.4-6c1.5-1.8,3.4-2.9,5.6-3.3l31.8-5.6c2.1-0.4,3.9,0.1,5.6,1.3c1.5,1.4,2.3,3.1,2.3,5.2v24l-15.8,2.8v-15.9
				l-16.1,2.8v24.9l14.3-2.5v14l-14.3,2.5v24.9l15.9-2.8v-15.9l16.1-2.8v23.9C392.2-640,391.5-638,390-636z"/>
		</g>
		<g>
			<path class="st3" d="M432.2-641.2l-15.7-45.2v47.9l-15.8,2.8v-87.8c0-2.2,0.8-4.2,2.4-6c1.4-1.9,3.3-3,5.6-3.4l7.9-1.4l16.3,53.8
				v-56.7l7.7-1.4c2.1-0.4,4,0.1,5.6,1.4c1.5,1.3,2.3,3,2.3,5.2v87.8L432.2-641.2z"/>
		</g>
		<g>
			<polygon class="st1" points="509,-655 493.1,-652.2 477.2,-745.3 493.1,-748.1 501.1,-685.6 509,-750.9 525,-753.7 			"/>
		</g>
	</g>
</g>
</svg>
